<svg id="Layer_1" data-name="Layer 1" xmlns="http://www.w3.org/2000/svg" viewBox="0 0 61.48 63.33">
  <defs>
    <style>
      .cls-1 {
        fill: #020202;
      }
    </style>
  </defs>
  <title>PMS-Icon-Sheet [Recovered]</title>
  <g>
    <path class="cls-1" d="M30.74,30.5c-14.26,0-24.56-3.32-30.74-8v8c0,3,7.57,11.81,30.74,11.81S61.48,33.53,61.48,30.5v-8C55.3,27.18,45,30.5,30.74,30.5Z"/>
    <path class="cls-1" d="M30.74,63.33c23.17,0,30.74-8.78,30.74-11.81v-8c-6.18,4.68-16.48,8-30.74,8S6.18,48.21,0,43.53v8C0,54.55,7.57,63.33,30.74,63.33Z"/>
    <path class="cls-1" d="M30.74,21.5c18.57,0,27.54-5.36,30.74-9.29C57.21,4.84,43.92,1,30.74,1S4.27,4.84,0,12.22C3.2,16.15,12.17,21.5,30.74,21.5Z"/>
  </g>
</svg>
