<svg id="Layer_1" data-name="Layer 1" xmlns="http://www.w3.org/2000/svg" viewBox="0 0 72.93 62.51">
  <defs>
    <style>
      .cls-1 {
        fill: #b5bdc9;
      }
    </style>
  </defs>
  <title>PMS-Icon-Sheet</title>
  <path class="cls-1" d="M59.39,26H29.17C26.3,26,26,28.38,26,31.26s0.25,5.21,3.13,5.21H59.39c2.88,0,3.13-2.33,3.13-5.21S62.26,26,59.39,26Zm10.42,26H29.17C26.3,52.09,26,54.42,26,57.3s0.25,5.21,3.13,5.21H69.81c2.88,0,3.13-2.33,3.13-5.21S72.68,52.09,69.81,52.09ZM29.17,10.42H69.81c2.88,0,3.13-2.33,3.13-5.21S72.68,0,69.81,0H29.17C26.3,0,26,2.33,26,5.21S26.3,10.42,29.17,10.42ZM12.5,26H3.13C0.25,26,0,28.38,0,31.26s0.25,5.21,3.13,5.21H12.5c2.88,0,3.13-2.33,3.13-5.21S15.38,26,12.5,26Zm0,26H3.13C0.25,52.09,0,54.42,0,57.3s0.25,5.21,3.13,5.21H12.5c2.88,0,3.13-2.33,3.13-5.21S15.38,52.09,12.5,52.09ZM12.5,0H3.13C0.25,0,0,2.33,0,5.21s0.25,5.21,3.13,5.21H12.5c2.88,0,3.13-2.33,3.13-5.21S15.38,0,12.5,0Z"/>
</svg>
